<svg width="1326" height="636" viewBox="0 0 1326 636" xmlns="http://www.w3.org/2000/svg" font-family="'Segoe UI', Arial, sans-serif">
  <!-- Dark background -->
  <rect width="1326" height="636" fill="#0a0a14"/>

  <!-- Subtle floating particles -->
  <circle cx="380" cy="220" r="3" fill="#9b59b6" fill-opacity="0.5"/>
  <circle cx="800" cy="215" r="3" fill="#3498db" fill-opacity="0.5"/>
  <circle cx="320" cy="470" r="3" fill="#f39c12" fill-opacity="0.4"/>
  <circle cx="960" cy="300" r="3" fill="#2ecc71" fill-opacity="0.4"/>
  <circle cx="500" cy="380" r="2" fill="#9b59b6" fill-opacity="0.3"/>
  <circle cx="1100" cy="180" r="2" fill="#3498db" fill-opacity="0.3"/>
  <circle cx="700" cy="560" r="2" fill="#2ecc71" fill-opacity="0.3"/>

  <!-- Header bar -->
  <rect x="0" y="0" width="1326" height="36" fill="#0d0d1a"/>
  <!-- Icon placeholder -->
  <rect x="14" y="8" width="20" height="20" rx="4" fill="#2a2a3e"/>
  <text x="24" y="23" text-anchor="middle" font-size="12" fill="#2ecc71">⬡</text>
  <text x="44" y="23" font-size="13" fill="#ffffff" font-weight="600" letter-spacing="1">OFICINA MÁGICA DE OPENCLAW</text>
  <!-- EN VIVO badge -->
  <circle cx="1290" cy="18" r="5" fill="#2ecc71"/>
  <text x="1300" y="22" font-size="11" fill="#2ecc71" font-weight="bold">EN VIVO</text>

  <!-- Sprint review tooltip above Medusa -->
  <rect x="468" y="50" width="196" height="26" rx="13" fill="#1a1a2e" stroke="#2a2a3e" stroke-width="1"/>
  <text x="566" y="67" text-anchor="middle" font-size="11" fill="#4a5568">Sprint review en 30 min</text>

  <!-- ============ MEDUSA (top center) ============ -->
  <g transform="translate(566, 80)">
    <!-- Platform/shadow -->
    <ellipse cx="0" cy="148" rx="58" ry="14" fill="#1a1a2e" fill-opacity="0.8"/>
    <!-- Body -->
    <rect x="-28" y="88" width="56" height="52" rx="8" fill="#1abc9c"/>
    <!-- Arms -->
    <rect x="-44" y="96" width="18" height="10" rx="5" fill="#1abc9c"/>
    <rect x="26" y="96" width="18" height="10" rx="5" fill="#1abc9c"/>
    <!-- Head -->
    <circle cx="0" cy="72" r="32" fill="#1abc9c"/>
    <!-- Face -->
    <circle cx="-10" cy="68" r="9" fill="#0d6e5a"/>
    <circle cx="10" cy="68" r="9" fill="#0d6e5a"/>
    <circle cx="-10" cy="68" r="5" fill="#2ecc71"/>
    <circle cx="10" cy="68" r="5" fill="#2ecc71"/>
    <circle cx="-9" cy="67" r="2" fill="#ffffff"/>
    <circle cx="11" cy="67" r="2" fill="#ffffff"/>
    <!-- Mouth -->
    <path d="M -8 82 Q 0 88 8 82" fill="none" stroke="#0d6e5a" stroke-width="2" stroke-linecap="round"/>
    <!-- Snake hair / tendrils -->
    <circle cx="-20" cy="44" r="6" fill="#2ecc71"/>
    <circle cx="-8" cy="36" r="6" fill="#2ecc71"/>
    <circle cx="6" cy="32" r="6" fill="#2ecc71"/>
    <circle cx="20" cy="36" r="6" fill="#2ecc71"/>
    <circle cx="28" cy="48" r="5" fill="#2ecc71"/>
    <circle cx="-28" cy="54" r="5" fill="#2ecc71"/>
    <!-- Small dots on snakes -->
    <circle cx="-20" cy="40" r="2" fill="#ffffff" fill-opacity="0.6"/>
    <circle cx="6" cy="28" r="2" fill="#ffffff" fill-opacity="0.6"/>
    <circle cx="22" cy="32" r="2" fill="#ffffff" fill-opacity="0.6"/>
    <!-- Legs -->
    <rect x="-20" y="136" width="16" height="14" rx="4" fill="#0d6e5a"/>
    <rect x="4" y="136" width="16" height="14" rx="4" fill="#0d6e5a"/>
    <!-- Label -->
    <rect x="-58" y="158" width="116" height="32" rx="8" fill="#0d1f1a" stroke="#2ecc71" stroke-width="1.5"/>
    <circle cx="-40" cy="170" r="5" fill="#2ecc71"/>
    <text x="-30" y="171" font-size="12" fill="#2ecc71" font-weight="bold">Medusa</text>
    <text x="0" y="183" text-anchor="middle" font-size="9" fill="#4a5568">Coordinadora General</text>
  </g>

  <!-- ============ CONTENT CREATOR (upper left) ============ -->
  <g transform="translate(248, 220)">
    <!-- Chat bubble -->
    <rect x="-16" y="-44" width="44" height="26" rx="8" fill="#1e1e35" stroke="#2a2a3e" stroke-width="1"/>
    <circle cx="-4" cy="-31" r="3" fill="#4a5568"/>
    <circle cx="6" cy="-31" r="3" fill="#4a5568"/>
    <circle cx="16" cy="-31" r="3" fill="#4a5568"/>
    <!-- Platform -->
    <ellipse cx="0" cy="142" rx="50" ry="12" fill="#1a1a2e" fill-opacity="0.8"/>
    <!-- Body - pink/magenta -->
    <rect x="-26" y="82" width="52" height="52" rx="8" fill="#e91e8c"/>
    <!-- Arms -->
    <rect x="-40" y="90" width="16" height="10" rx="5" fill="#e91e8c"/>
    <rect x="24" y="90" width="16" height="10" rx="5" fill="#e91e8c"/>
    <!-- Head -->
    <circle cx="0" cy="66" r="30" fill="#f8bbd0"/>
    <!-- Hair -->
    <ellipse cx="0" cy="40" rx="30" ry="16" fill="#9c27b0"/>
    <circle cx="-20" cy="46" r="10" fill="#9c27b0"/>
    <circle cx="20" cy="46" r="10" fill="#9c27b0"/>
    <!-- Hair accessory -->
    <circle cx="-4" cy="36" r="6" fill="#ffd700"/>
    <!-- Face -->
    <circle cx="-10" cy="64" r="8" fill="#5d1049"/>
    <circle cx="10" cy="64" r="8" fill="#5d1049"/>
    <circle cx="-10" cy="64" r="4" fill="#e91e8c"/>
    <circle cx="10" cy="64" r="4" fill="#e91e8c"/>
    <circle cx="-9" cy="63" r="2" fill="#ffffff"/>
    <circle cx="11" cy="63" r="2" fill="#ffffff"/>
    <!-- Legs -->
    <rect x="-18" y="130" width="14" height="14" rx="4" fill="#880e4f"/>
    <rect x="4" y="130" width="14" height="14" rx="4" fill="#880e4f"/>
    <!-- Label -->
    <rect x="-62" y="152" width="124" height="32" rx="8" fill="#1f0d1a" stroke="#e91e8c" stroke-width="1.5"/>
    <circle cx="-44" cy="164" r="5" fill="#e91e8c"/>
    <text x="-34" y="165" font-size="11" fill="#e91e8c" font-weight="bold">Content Creator</text>
    <text x="0" y="177" text-anchor="middle" font-size="9" fill="#4a5568">Creadora de Contenido</text>
  </g>

  <!-- ============ PM ESTRATÉGICO (lower left) ============ -->
  <g transform="translate(238, 390)">
    <!-- Platform -->
    <ellipse cx="0" cy="122" rx="48" ry="11" fill="#1a1a2e" fill-opacity="0.8"/>
    <!-- Body - yellow/gold -->
    <rect x="-24" y="70" width="48" height="46" rx="8" fill="#f5a623"/>
    <!-- Arms -->
    <rect x="-38" y="78" width="16" height="10" rx="5" fill="#f5a623"/>
    <rect x="22" y="78" width="16" height="10" rx="5" fill="#f5a623"/>
    <!-- Head -->
    <circle cx="0" cy="56" r="28" fill="#f5a623"/>
    <!-- Hair -->
    <ellipse cx="0" cy="32" rx="28" ry="14" fill="#8b6914"/>
    <!-- Face -->
    <circle cx="-9" cy="54" r="8" fill="#7a4f00"/>
    <circle cx="9" cy="54" r="8" fill="#7a4f00"/>
    <circle cx="-9" cy="54" r="4" fill="#f5a623"/>
    <circle cx="9" cy="54" r="4" fill="#f5a623"/>
    <circle cx="-8" cy="53" r="2" fill="#ffffff"/>
    <circle cx="10" cy="53" r="2" fill="#ffffff"/>
    <!-- Legs -->
    <rect x="-16" y="112" width="13" height="12" rx="4" fill="#7a4f00"/>
    <rect x="3" y="112" width="13" height="12" rx="4" fill="#7a4f00"/>
    <!-- Label -->
    <rect x="-58" y="130" width="116" height="32" rx="8" fill="#1f1800" stroke="#f5a623" stroke-width="1.5"/>
    <rect x="-50" cy="142" width="8" height="8" rx="2" fill="#f5a623"/>
    <text x="-36" y="143" font-size="9" fill="#f5a623">▪</text>
    <text x="-26" y="143" font-size="11" fill="#f5a623" font-weight="bold">PM Estratégico</text>
    <text x="0" y="155" text-anchor="middle" font-size="9" fill="#4a5568">Project Manager</text>
  </g>

  <!-- ============ SIREN (bottom center) ============ -->
  <g transform="translate(660, 400)">
    <!-- Chat bubble -->
    <rect x="-16" y="-44" width="44" height="26" rx="8" fill="#1e1e35" stroke="#2a2a3e" stroke-width="1"/>
    <circle cx="-4" cy="-31" r="3" fill="#4a5568"/>
    <circle cx="6" cy="-31" r="3" fill="#4a5568"/>
    <circle cx="16" cy="-31" r="3" fill="#4a5568"/>
    <!-- Platform -->
    <ellipse cx="0" cy="135" rx="52" ry="12" fill="#1a1a2e" fill-opacity="0.8"/>
    <!-- Body - teal -->
    <rect x="-26" y="78" width="52" height="50" rx="8" fill="#1abc9c"/>
    <!-- Arms -->
    <rect x="-40" y="86" width="16" height="10" rx="5" fill="#1abc9c"/>
    <rect x="24" y="86" width="16" height="10" rx="5" fill="#1abc9c"/>
    <!-- Head -->
    <circle cx="0" cy="62" r="30" fill="#1abc9c"/>
    <!-- Long hair -->
    <rect x="-26" y="50" width="10" height="70" rx="5" fill="#00838f"/>
    <rect x="16" y="50" width="10" height="70" rx="5" fill="#00838f"/>
    <!-- Face -->
    <circle cx="-10" cy="60" r="8" fill="#006064"/>
    <circle cx="10" cy="60" r="8" fill="#006064"/>
    <circle cx="-10" cy="60" r="4" fill="#1abc9c"/>
    <circle cx="10" cy="60" r="4" fill="#1abc9c"/>
    <circle cx="-9" cy="59" r="2" fill="#ffffff"/>
    <circle cx="11" cy="59" r="2" fill="#ffffff"/>
    <!-- Legs -->
    <rect x="-18" y="124" width="14" height="13" rx="4" fill="#006064"/>
    <rect x="4" y="124" width="14" height="13" rx="4" fill="#006064"/>
    <!-- Label -->
    <rect x="-60" y="145" width="120" height="32" rx="8" fill="#0a1f1f" stroke="#1abc9c" stroke-width="1.5"/>
    <circle cx="-42" cy="157" r="5" fill="#1abc9c"/>
    <text x="-32" y="158" font-size="13" fill="#1abc9c" font-weight="bold">Siren</text>
    <text x="0" y="170" text-anchor="middle" font-size="9" fill="#4a5568">Viral Video &amp; Contenido Visual</text>
  </g>

  <!-- ============ DEV GUARDIAN (upper right) ============ -->
  <g transform="translate(1076, 230)">
    <!-- Chat bubble -->
    <rect x="-2" y="-44" width="44" height="26" rx="8" fill="#1e1e35" stroke="#2a2a3e" stroke-width="1"/>
    <circle cx="8" cy="-31" r="3" fill="#4a5568"/>
    <circle cx="18" cy="-31" r="3" fill="#4a5568"/>
    <circle cx="28" cy="-31" r="3" fill="#4a5568"/>
    <!-- Platform -->
    <ellipse cx="0" cy="142" rx="50" ry="12" fill="#1a1a2e" fill-opacity="0.8"/>
    <!-- Body - dark blue -->
    <rect x="-25" y="84" width="50" height="50" rx="8" fill="#1565c0"/>
    <!-- Arms -->
    <rect x="-39" y="92" width="16" height="10" rx="5" fill="#1565c0"/>
    <rect x="23" y="92" width="16" height="10" rx="5" fill="#1565c0"/>
    <!-- Head -->
    <circle cx="0" cy="68" r="30" fill="#1565c0"/>
    <!-- Helmet / visor -->
    <ellipse cx="0" cy="50" rx="30" ry="16" fill="#0d47a1"/>
    <rect x="-18" y="52" width="36" height="14" rx="4" fill="#1a237e" fill-opacity="0.8"/>
    <rect x="-14" y="54" width="28" height="10" rx="3" fill="#3d5afe" fill-opacity="0.6"/>
    <!-- Face -->
    <circle cx="-10" cy="68" r="8" fill="#0a2472"/>
    <circle cx="10" cy="68" r="8" fill="#0a2472"/>
    <circle cx="-10" cy="68" r="4" fill="#1565c0"/>
    <circle cx="10" cy="68" r="4" fill="#1565c0"/>
    <circle cx="-9" cy="67" r="2" fill="#ffffff"/>
    <circle cx="11" cy="67" r="2" fill="#ffffff"/>
    <!-- Legs -->
    <rect x="-18" y="130" width="14" height="14" rx="4" fill="#0d47a1"/>
    <rect x="4" y="130" width="14" height="14" rx="4" fill="#0d47a1"/>
    <!-- Label -->
    <rect x="-56" y="152" width="112" height="32" rx="8" fill="#0a0f2a" stroke="#1565c0" stroke-width="1.5"/>
    <circle cx="-40" cy="164" r="5" fill="#3d5afe"/>
    <text x="-30" y="165" font-size="11" fill="#3d5afe" font-weight="bold">Dev Guardian</text>
    <text x="0" y="177" text-anchor="middle" font-size="9" fill="#4a5568">Guardián del Código</text>
  </g>

  <!-- ============ SEARCH MASTER (lower right) ============ -->
  <g transform="translate(1090, 400)">
    <!-- Platform -->
    <ellipse cx="0" cy="128" rx="50" ry="12" fill="#1a1a2e" fill-opacity="0.8"/>
    <!-- Body - purple -->
    <rect x="-25" y="76" width="50" height="46" rx="8" fill="#7b1fa2"/>
    <!-- Arms -->
    <rect x="-39" y="84" width="16" height="10" rx="5" fill="#7b1fa2"/>
    <rect x="23" y="84" width="16" height="10" rx="5" fill="#7b1fa2"/>
    <!-- Head -->
    <circle cx="0" cy="62" r="28" fill="#ce93d8"/>
    <!-- Hair/hat brim -->
    <ellipse cx="0" cy="38" rx="28" ry="12" fill="#4a148c"/>
    <circle cx="-16" cy="44" r="8" fill="#4a148c"/>
    <circle cx="16" cy="44" r="8" fill="#4a148c"/>
    <!-- Face -->
    <circle cx="-10" cy="62" r="8" fill="#4a148c"/>
    <circle cx="10" cy="62" r="8" fill="#4a148c"/>
    <circle cx="-10" cy="62" r="4" fill="#7b1fa2"/>
    <circle cx="10" cy="62" r="4" fill="#7b1fa2"/>
    <circle cx="-9" cy="61" r="2" fill="#ffffff"/>
    <circle cx="11" cy="61" r="2" fill="#ffffff"/>
    <!-- Legs -->
    <rect x="-17" y="118" width="13" height="12" rx="4" fill="#4a148c"/>
    <rect x="4" y="118" width="13" height="12" rx="4" fill="#4a148c"/>
    <!-- Label -->
    <rect x="-62" y="138" width="124" height="32" rx="8" fill="#160a1f" stroke="#7b1fa2" stroke-width="1.5"/>
    <circle cx="-46" cy="150" r="5" fill="#ce93d8"/>
    <text x="-36" y="151" font-size="11" fill="#ce93d8" font-weight="bold">Search Master</text>
    <text x="0" y="163" text-anchor="middle" font-size="9" fill="#4a5568">SEO &amp; GEO Specialist</text>
  </g>

  <!-- Connecting lines (subtle) -->
  <line x1="566" y1="200" x2="300" y2="280" stroke="#2ecc71" stroke-width="1" stroke-opacity="0.15" stroke-dasharray="4,4"/>
  <line x1="566" y1="200" x2="280" y2="420" stroke="#f5a623" stroke-width="1" stroke-opacity="0.15" stroke-dasharray="4,4"/>
  <line x1="566" y1="200" x2="660" y2="430" stroke="#1abc9c" stroke-width="1" stroke-opacity="0.15" stroke-dasharray="4,4"/>
  <line x1="566" y1="200" x2="1076" y2="290" stroke="#3d5afe" stroke-width="1" stroke-opacity="0.15" stroke-dasharray="4,4"/>
  <line x1="566" y1="200" x2="1090" y2="430" stroke="#7b1fa2" stroke-width="1" stroke-opacity="0.15" stroke-dasharray="4,4"/>
</svg>
