<svg width="1200" height="675" viewBox="0 0 1200 675" xmlns="http://www.w3.org/2000/svg" font-family="monospace">
  <rect width="1200" height="675" fill="#0a0a12"/>
  <pattern id="dots" width="60" height="60" patternUnits="userSpaceOnUse">
    <circle cx="30" cy="30" r="1" fill="#ffffff" fill-opacity="0.04"/>
  </pattern>
  <rect width="1200" height="675" fill="url(#dots)"/>
  <!-- Header -->
  <rect x="0" y="0" width="1200" height="70" fill="#0d0d1a" fill-opacity="0.8"/>
  <text x="40" y="42" text-anchor="middle" font-size="18">🐍</text>
  <text x="72" y="30" font-size="16" fill="#2ecc71" font-weight="bold" letter-spacing="3">MEDUSA</text>
  <text x="72" y="46" font-size="9" fill="#4a5568" letter-spacing="2">OPENCLAW CENTRO DE CONTROL</text>
  <!-- Nav -->
  <rect x="24" y="78" width="270" height="36" rx="10" fill="#13131f" fill-opacity="0.6" stroke="#2a2a3e" stroke-width="1"/>
  <text x="68" y="101" text-anchor="middle" font-size="10" fill="#4a5568">🏠 Dashboard</text>
  <text x="158" y="101" text-anchor="middle" font-size="10" fill="#4a5568">📋 Tareas</text>
  <rect x="208" y="82" width="80" height="28" rx="8" fill="#2ecc71" fill-opacity="0.15" stroke="#2ecc71" stroke-width="1" stroke-opacity="0.4"/>
  <text x="248" y="101" text-anchor="middle" font-size="10" fill="#2ecc71">💸 Costos API</text>
  <!-- Office bar -->
  <rect x="24" y="122" width="1152" height="40" rx="12" fill="#11111e" stroke="#1e1e35" stroke-width="1"/>
  <text x="600" y="147" text-anchor="middle" font-size="9" fill="#2a2a4a" letter-spacing="2">✦ OFICINA VIRTUAL ✦</text>

  <!-- Summary cards -->
  <rect x="24" y="174" width="275" height="80" rx="12" fill="#11111e" stroke="#1e1e35" stroke-width="1"/>
  <text x="44" y="196" font-size="9" fill="#4a5568" letter-spacing="1">HOY</text>
  <text x="44" y="224" font-size="26" fill="#ffffff" font-weight="bold">$0.087</text>
  <text x="44" y="244" font-size="9" fill="#4a5568">42.3K tokens · 18 llamadas</text>

  <rect x="311" y="174" width="275" height="80" rx="12" fill="#11111e" stroke="#1e1e35" stroke-width="1"/>
  <text x="331" y="196" font-size="9" fill="#4a5568" letter-spacing="1">ESTA SEMANA</text>
  <text x="331" y="224" font-size="26" fill="#2ecc71" font-weight="bold">$0.431</text>
  <text x="331" y="244" font-size="9" fill="#4a5568">198K tokens · 87 llamadas</text>

  <rect x="598" y="174" width="275" height="80" rx="12" fill="#11111e" stroke="#1e1e35" stroke-width="1"/>
  <text x="618" y="196" font-size="9" fill="#4a5568" letter-spacing="1">ESTE MES</text>
  <text x="618" y="224" font-size="26" fill="#9b59b6" font-weight="bold">$1.204</text>
  <text x="618" y="244" font-size="9" fill="#4a5568">580K tokens · 247 llamadas</text>

  <rect x="885" y="174" width="291" height="80" rx="12" fill="#11111e" stroke="#1e1e35" stroke-width="1"/>
  <text x="905" y="196" font-size="9" fill="#4a5568" letter-spacing="1">TOTAL</text>
  <text x="905" y="224" font-size="26" fill="#f39c12" font-weight="bold">$3.817</text>
  <text x="905" y="244" font-size="9" fill="#4a5568">1.84M tokens · 714 llamadas</text>

  <!-- By provider + by agent -->
  <rect x="24" y="266" width="575" height="180" rx="12" fill="#11111e" stroke="#1e1e35" stroke-width="1"/>
  <text x="44" y="288" font-size="9" fill="#4a5568" letter-spacing="1">POR PROVEEDOR</text>
  <!-- DeepSeek -->
  <text x="44" y="314" font-size="11" fill="#ffffff">deepseek</text>
  <text x="510" y="314" text-anchor="end" font-size="11" fill="#ffffff" font-weight="bold">$2.341</text>
  <text x="510" y="328" text-anchor="end" font-size="9" fill="#4a5568">1.12M tok</text>
  <rect x="44" y="332" width="530" height="6" rx="3" fill="#1e1e35"/>
  <rect x="44" y="332" width="370" height="6" rx="3" fill="#3498db" fill-opacity="0.7"/>
  <!-- Alibaba -->
  <text x="44" y="360" font-size="11" fill="#ffffff">alibaba</text>
  <text x="510" y="360" text-anchor="end" font-size="11" fill="#ffffff" font-weight="bold">$1.476</text>
  <text x="510" y="374" text-anchor="end" font-size="9" fill="#4a5568">722K tok</text>
  <rect x="44" y="378" width="530" height="6" rx="3" fill="#1e1e35"/>
  <rect x="44" y="378" width="233" height="6" rx="3" fill="#f39c12" fill-opacity="0.7"/>

  <rect x="611" y="266" width="565" height="180" rx="12" fill="#11111e" stroke="#1e1e35" stroke-width="1"/>
  <text x="631" y="288" font-size="9" fill="#4a5568" letter-spacing="1">POR AGENTE (30 DÍAS)</text>
  <!-- Agents -->
  <text x="655" y="313" font-size="12">🐍</text>
  <text x="675" y="313" font-size="10" fill="#ffffff">medusa</text>
  <text x="1150" y="313" text-anchor="end" font-size="10" fill="#ffffff" font-weight="bold">$1.824</text>
  <text x="1150" y="326" text-anchor="end" font-size="8" fill="#4a5568">312 calls</text>
  <rect x="675" y="330" width="445" height="4" rx="2" fill="#1e1e35"/>
  <rect x="675" y="330" width="310" height="4" rx="2" fill="#2ecc71" fill-opacity="0.6"/>

  <text x="655" y="352" font-size="12">✨</text>
  <text x="675" y="352" font-size="10" fill="#ffffff">content-creator</text>
  <text x="1150" y="352" text-anchor="end" font-size="10" fill="#ffffff" font-weight="bold">$0.941</text>
  <text x="1150" y="365" text-anchor="end" font-size="8" fill="#4a5568">187 calls</text>
  <rect x="675" y="369" width="445" height="4" rx="2" fill="#1e1e35"/>
  <rect x="675" y="369" width="229" height="4" rx="2" fill="#9b59b6" fill-opacity="0.6"/>

  <text x="655" y="391" font-size="12">📋</text>
  <text x="675" y="391" font-size="10" fill="#ffffff">pm-estrategico</text>
  <text x="1150" y="391" text-anchor="end" font-size="10" fill="#ffffff" font-weight="bold">$0.612</text>
  <text x="1150" y="404" text-anchor="end" font-size="8" fill="#4a5568">124 calls</text>
  <rect x="675" y="408" width="445" height="4" rx="2" fill="#1e1e35"/>
  <rect x="675" y="408" width="121" height="4" rx="2" fill="#f39c12" fill-opacity="0.6"/>

  <!-- Daily chart -->
  <rect x="24" y="458" width="750" height="150" rx="12" fill="#11111e" stroke="#1e1e35" stroke-width="1"/>
  <text x="44" y="480" font-size="9" fill="#4a5568" letter-spacing="1">COSTE DIARIO (ÚLTIMOS 7 DÍAS)</text>
  <!-- bars -->
  <rect x="80" y="558" width="60" height="30" rx="3" fill="#2ecc71" fill-opacity="0.5"/>
  <text x="110" y="575" text-anchor="middle" font-size="9" fill="#2ecc71">$0.031</text>
  <text x="110" y="598" text-anchor="middle" font-size="8" fill="#4a5568">03-22</text>
  <rect x="170" y="540" width="60" height="48" rx="3" fill="#2ecc71" fill-opacity="0.55"/>
  <text x="200" y="562" text-anchor="middle" font-size="9" fill="#2ecc71">$0.049</text>
  <text x="200" y="598" text-anchor="middle" font-size="8" fill="#4a5568">03-23</text>
  <rect x="260" y="520" width="60" height="68" rx="3" fill="#2ecc71" fill-opacity="0.6"/>
  <text x="290" y="542" text-anchor="middle" font-size="9" fill="#2ecc71">$0.071</text>
  <text x="290" y="598" text-anchor="middle" font-size="8" fill="#4a5568">03-24</text>
  <rect x="350" y="510" width="60" height="78" rx="3" fill="#2ecc71" fill-opacity="0.65"/>
  <text x="380" y="532" text-anchor="middle" font-size="9" fill="#2ecc71">$0.082</text>
  <text x="380" y="598" text-anchor="middle" font-size="8" fill="#4a5568">03-25</text>
  <rect x="440" y="498" width="60" height="90" rx="3" fill="#2ecc71" fill-opacity="0.7"/>
  <text x="470" y="519" text-anchor="middle" font-size="9" fill="#2ecc71">$0.094</text>
  <text x="470" y="598" text-anchor="middle" font-size="8" fill="#4a5568">03-26</text>
  <rect x="530" y="530" width="60" height="58" rx="3" fill="#2ecc71" fill-opacity="0.75"/>
  <text x="560" y="552" text-anchor="middle" font-size="9" fill="#2ecc71">$0.061</text>
  <text x="560" y="598" text-anchor="middle" font-size="8" fill="#4a5568">03-27</text>
  <rect x="620" y="500" width="60" height="88" rx="3" fill="#2ecc71" fill-opacity="0.9"/>
  <text x="650" y="521" text-anchor="middle" font-size="9" fill="#2ecc71">$0.087</text>
  <text x="650" y="598" text-anchor="middle" font-size="8" fill="#4a5568">03-28</text>

  <!-- Image credits + recent calls -->
  <rect x="786" y="458" width="390" height="150" rx="12" fill="#11111e" stroke="#1e1e35" stroke-width="1"/>
  <text x="806" y="480" font-size="9" fill="#4a5568" letter-spacing="1">CRÉDITOS DE IMAGEN</text>
  <!-- fal.ai -->
  <text x="820" y="508" font-size="14">🎨</text>
  <text x="840" y="508" font-size="11" fill="#ffffff" font-weight="bold">fal.ai</text>
  <text x="1150" y="508" text-anchor="end" font-size="9" fill="#4a5568">nano-banana-2</text>
  <rect x="806" y="514" width="354" height="6" rx="3" fill="#1e1e35"/>
  <rect x="806" y="514" width="326" height="6" rx="3" fill="#9b59b6" fill-opacity="0.5"/>
  <text x="806" y="532" font-size="9" fill="#ffffff">$9.12 restante</text>
  <text x="1150" y="532" text-anchor="end" font-size="9" fill="#4a5568">≈ 114 imágenes</text>
  <!-- SiliconFlow -->
  <text x="820" y="558" font-size="14">⚡</text>
  <text x="840" y="558" font-size="11" fill="#ffffff" font-weight="bold">SiliconFlow</text>
  <text x="1150" y="558" text-anchor="end" font-size="9" fill="#4a5568">flux-dev</text>
  <rect x="806" y="564" width="354" height="6" rx="3" fill="#1e1e35"/>
  <rect x="806" y="564" width="240" height="6" rx="3" fill="#3498db" fill-opacity="0.5"/>
  <text x="806" y="582" font-size="9" fill="#ffffff">$4.28 restante</text>
  <text x="1150" y="582" text-anchor="end" font-size="9" fill="#4a5568">≈ 171 imágenes</text>
</svg>
