<svg width="1200" height="675" viewBox="0 0 1200 675" xmlns="http://www.w3.org/2000/svg" font-family="monospace">
  <rect width="1200" height="675" fill="#0a0a12"/>
  <pattern id="dots" width="60" height="60" patternUnits="userSpaceOnUse">
    <circle cx="30" cy="30" r="1" fill="#ffffff" fill-opacity="0.04"/>
  </pattern>
  <rect width="1200" height="675" fill="url(#dots)"/>

  <!-- Header -->
  <rect x="0" y="0" width="1200" height="70" fill="#0d0d1a" fill-opacity="0.8"/>
  <text x="40" y="42" text-anchor="middle" font-size="18">🐍</text>
  <text x="72" y="30" font-size="16" fill="#2ecc71" font-weight="bold" letter-spacing="3">MEDUSA</text>
  <text x="72" y="46" font-size="9" fill="#4a5568" letter-spacing="2">OPENCLAW CENTRO DE CONTROL</text>

  <!-- Nav -->
  <rect x="24" y="78" width="270" height="36" rx="10" fill="#13131f" fill-opacity="0.6" stroke="#2a2a3e" stroke-width="1"/>
  <text x="68" y="101" text-anchor="middle" font-size="10" fill="#4a5568">🏠 Dashboard</text>
  <rect x="118" y="82" width="80" height="28" rx="8" fill="#2ecc71" fill-opacity="0.15" stroke="#2ecc71" stroke-width="1" stroke-opacity="0.4"/>
  <text x="158" y="101" text-anchor="middle" font-size="10" fill="#2ecc71">📋 Tareas</text>
  <text x="248" y="101" text-anchor="middle" font-size="10" fill="#4a5568">💸 Costos API</text>

  <!-- Office bar -->
  <rect x="24" y="122" width="1152" height="50" rx="12" fill="#11111e" stroke="#1e1e35" stroke-width="1"/>
  <text x="600" y="152" text-anchor="middle" font-size="9" fill="#2a2a4a" letter-spacing="2">✦ OFICINA VIRTUAL ✦</text>

  <!-- Kanban header -->
  <text x="24" y="200" font-size="14" fill="#ffffff" font-weight="bold">Tablero de Tareas</text>
  <rect x="24" y="210" width="120" height="28" rx="8" fill="#11111e" stroke="#2ecc71" stroke-width="1" stroke-opacity="0.4"/>
  <text x="84" y="229" text-anchor="middle" font-size="9" fill="#2ecc71">+ Nueva tarea</text>
  <rect x="152" y="210" width="100" height="28" rx="8" fill="#11111e" stroke="#1e1e35" stroke-width="1"/>
  <text x="202" y="229" text-anchor="middle" font-size="9" fill="#4a5568">Filtrar agente</text>
  <rect x="260" y="210" width="100" height="28" rx="8" fill="#11111e" stroke="#1e1e35" stroke-width="1"/>
  <text x="310" y="229" text-anchor="middle" font-size="9" fill="#4a5568">Vista timeline</text>

  <!-- Kanban columns -->
  <!-- TODO -->
  <rect x="24" y="248" width="280" height="400" rx="12" fill="#0d0d1a" stroke="#1e1e35" stroke-width="1"/>
  <text x="44" y="270" font-size="10" fill="#4a5568" letter-spacing="2">TODO</text>
  <rect x="220" y="257" width="24" height="16" rx="8" fill="#1e1e35"/>
  <text x="232" y="269" text-anchor="middle" font-size="9" fill="#4a5568">5</text>

  <!-- Task card 1 -->
  <rect x="34" y="282" width="260" height="100" rx="10" fill="#11111e" stroke="#f39c12" stroke-width="1" stroke-opacity="0.3"/>
  <rect x="34" y="282" width="4" height="100" rx="2" fill="#f39c12" fill-opacity="0.6"/>
  <text x="50" y="300" font-size="10" fill="#ffffff" font-weight="bold">Optimizar fichas Shopify</text>
  <rect x="50" y="306" width="50" height="14" rx="6" fill="#f39c12" fill-opacity="0.2"/>
  <text x="75" y="317" text-anchor="middle" font-size="8" fill="#f39c12">alta</text>
  <text x="50" y="334" font-size="9" fill="#4a5568">🐍 medusa</text>
  <text x="220" y="334" font-size="9" fill="#4a5568">vence 04/05</text>
  <rect x="50" y="344" width="218" height="4" rx="2" fill="#1e1e35"/>
  <rect x="50" y="344" width="65" height="4" rx="2" fill="#f39c12" fill-opacity="0.6"/>
  <text x="50" y="360" font-size="8" fill="#4a5568">30% completado</text>
  <rect x="50" y="366" width="44" height="12" rx="4" fill="#1e1e35"/>
  <text x="72" y="375" text-anchor="middle" font-size="7" fill="#4a5568">shopify</text>
  <rect x="100" y="366" width="30" height="12" rx="4" fill="#1e1e35"/>
  <text x="115" y="375" text-anchor="middle" font-size="7" fill="#4a5568">seo</text>

  <!-- Task card 2 -->
  <rect x="34" y="392" width="260" height="85" rx="10" fill="#11111e" stroke="#3498db" stroke-width="1" stroke-opacity="0.3"/>
  <rect x="34" y="392" width="4" height="85" rx="2" fill="#3498db" fill-opacity="0.6"/>
  <text x="50" y="410" font-size="10" fill="#ffffff" font-weight="bold">Configurar Klaviyo flows</text>
  <rect x="50" y="416" width="50" height="14" rx="6" fill="#3498db" fill-opacity="0.2"/>
  <text x="75" y="427" text-anchor="middle" font-size="8" fill="#3498db">media</text>
  <text x="50" y="445" font-size="9" fill="#4a5568">📋 pm-estrategico</text>
  <text x="215" y="445" font-size="9" fill="#4a5568">07/05</text>
  <rect x="50" y="455" width="218" height="4" rx="2" fill="#1e1e35"/>
  <text x="50" y="470" font-size="8" fill="#4a5568">0% completado</text>

  <!-- IN PROGRESS -->
  <rect x="316" y="248" width="280" height="400" rx="12" fill="#0d0d1a" stroke="#2ecc71" stroke-width="1" stroke-opacity="0.2"/>
  <text x="336" y="270" font-size="10" fill="#2ecc71" letter-spacing="2">EN PROGRESO</text>
  <rect x="510" y="257" width="24" height="16" rx="8" fill="#2ecc71" fill-opacity="0.15"/>
  <text x="522" y="269" text-anchor="middle" font-size="9" fill="#2ecc71">3</text>

  <rect x="326" y="282" width="260" height="110" rx="10" fill="#11111e" stroke="#2ecc71" stroke-width="1" stroke-opacity="0.4"/>
  <rect x="326" y="282" width="4" height="110" rx="2" fill="#2ecc71" fill-opacity="0.7"/>
  <text x="342" y="300" font-size="10" fill="#ffffff" font-weight="bold">Blog post: GEO vs SEO</text>
  <rect x="342" y="306" width="50" height="14" rx="6" fill="#f39c12" fill-opacity="0.2"/>
  <text x="367" y="317" text-anchor="middle" font-size="8" fill="#f39c12">alta</text>
  <text x="342" y="335" font-size="9" fill="#4a5568">✨ content-creator</text>
  <rect x="342" y="344" width="218" height="4" rx="2" fill="#1e1e35"/>
  <rect x="342" y="344" width="152" height="4" rx="2" fill="#2ecc71" fill-opacity="0.7"/>
  <text x="342" y="360" font-size="8" fill="#2ecc71">70% completado</text>
  <rect x="342" y="368" width="52" height="12" rx="4" fill="#1e1e35"/>
  <text x="368" y="377" text-anchor="middle" font-size="7" fill="#4a5568">contenido</text>

  <rect x="326" y="402" width="260" height="85" rx="10" fill="#11111e" stroke="#9b59b6" stroke-width="1" stroke-opacity="0.3"/>
  <rect x="326" y="402" width="4" height="85" rx="2" fill="#9b59b6" fill-opacity="0.6"/>
  <text x="342" y="420" font-size="10" fill="#ffffff" font-weight="bold">Diseño landing page</text>
  <rect x="342" y="426" width="50" height="14" rx="6" fill="#9b59b6" fill-opacity="0.2"/>
  <text x="367" y="437" text-anchor="middle" font-size="8" fill="#9b59b6">media</text>
  <text x="342" y="455" font-size="9" fill="#4a5568">🧜‍♀️ siren</text>
  <rect x="342" y="464" width="218" height="4" rx="2" fill="#1e1e35"/>
  <rect x="342" y="464" width="87" height="4" rx="2" fill="#9b59b6" fill-opacity="0.6"/>
  <text x="342" y="480" font-size="8" fill="#4a5568">40% completado</text>

  <!-- REVIEW -->
  <rect x="608" y="248" width="280" height="400" rx="12" fill="#0d0d1a" stroke="#1e1e35" stroke-width="1"/>
  <text x="628" y="270" font-size="10" fill="#4a5568" letter-spacing="2">REVISIÓN</text>
  <rect x="798" y="257" width="24" height="16" rx="8" fill="#1e1e35"/>
  <text x="810" y="269" text-anchor="middle" font-size="9" fill="#4a5568">2</text>

  <rect x="618" y="282" width="260" height="95" rx="10" fill="#11111e" stroke="#1abc9c" stroke-width="1" stroke-opacity="0.3"/>
  <rect x="618" y="282" width="4" height="95" rx="2" fill="#1abc9c" fill-opacity="0.6"/>
  <text x="634" y="300" font-size="10" fill="#ffffff" font-weight="bold">Auditoría SEO técnica</text>
  <rect x="634" y="306" width="30" height="14" rx="6" fill="#e74c3c" fill-opacity="0.2"/>
  <text x="649" y="317" text-anchor="middle" font-size="8" fill="#e74c3c">urgente</text>
  <text x="634" y="335" font-size="9" fill="#4a5568">🔍 search-master</text>
  <rect x="634" y="344" width="218" height="4" rx="2" fill="#1e1e35"/>
  <rect x="634" y="344" width="196" height="4" rx="2" fill="#1abc9c" fill-opacity="0.7"/>
  <text x="634" y="360" font-size="8" fill="#1abc9c">90% completado — en revisión</text>

  <!-- DONE -->
  <rect x="900" y="248" width="276" height="400" rx="12" fill="#0d0d1a" stroke="#1e1e35" stroke-width="1"/>
  <text x="920" y="270" font-size="10" fill="#4a5568" letter-spacing="2">COMPLETADO</text>
  <rect x="1130" y="257" width="24" height="16" rx="8" fill="#1e1e35"/>
  <text x="1142" y="269" text-anchor="middle" font-size="9" fill="#2ecc71">16</text>

  <rect x="910" y="282" width="256" height="80" rx="10" fill="#11111e" stroke="#1e1e35" stroke-width="1"/>
  <rect x="910" y="282" width="4" height="80" rx="2" fill="#2ecc71" fill-opacity="0.4"/>
  <text x="926" y="300" font-size="10" fill="#4a5568" font-weight="bold">Setup VPS inicial</text>
  <text x="1138" y="300" font-size="14" fill="#2ecc71">✓</text>
  <rect x="926" y="306" width="216" height="4" rx="2" fill="#2ecc71" fill-opacity="0.3"/>
  <rect x="926" y="306" width="216" height="4" rx="2" fill="#2ecc71" fill-opacity="0.5"/>
  <text x="926" y="322" font-size="8" fill="#2ecc71">100% · completado hace 3 días</text>

  <rect x="910" y="372" width="256" height="80" rx="10" fill="#11111e" stroke="#1e1e35" stroke-width="1"/>
  <rect x="910" y="372" width="4" height="80" rx="2" fill="#2ecc71" fill-opacity="0.4"/>
  <text x="926" y="390" font-size="10" fill="#4a5568" font-weight="bold">Integración fal.ai</text>
  <text x="1138" y="390" font-size="14" fill="#2ecc71">✓</text>
  <rect x="926" y="396" width="216" height="4" rx="2" fill="#2ecc71" fill-opacity="0.5"/>
  <text x="926" y="412" font-size="8" fill="#2ecc71">100% · completado hoy</text>
</svg>
